<?xml version="1.0" encoding="UTF-8"?>
<svg id="Layer_1" xmlns="http://www.w3.org/2000/svg" version="1.1" viewBox="0 0 1250 1250">
  <!-- Generator: Adobe Illustrator 29.4.0, SVG Export Plug-In . SVG Version: 2.1.0 Build 152)  -->
  <defs>
    <style>
      .st0 {
        fill: #d3ae37;
      }

      .st1 {
        fill: #0b0b0b;
      }
    </style>
  </defs>
  <path class="st1" d="M631,127c48.91,39.97,88.78,91.68,117.52,147.92,3.26,6.39,18.79,37.45,17.4,42.37-.76,2.68-6.5.41-8.74-.05-17.69-3.59-34.71-12.33-52.73-15.26-13.67-13.29-21.72-30.92-32.64-46.34-10.92-15.43-26.37-33.89-39.79-47.19-1.09-1.08-2.33-3.17-4.05-2.05-9.43,11.5-20.54,21.57-29.95,33.08-44.21,54.07-66.13,125.87-72.07,194.85l-1.09,62.38-48.23,12.88c-5.76-.57-8.07-16.47-8.63-21.26-4.19-35.99,3.46-89.74,11.47-125.44,21.24-94.62,72.72-174.97,147.51-235.89h4.02Z"/>
  <path class="st1" d="M1050,857.69l1.42,9.7c-9.18,7.77-23.19,12.02-34.65,15.56-33.74,10.41-70.01,14.63-105.23,15.77-23.79.77-47.74-.65-71.54-.05-.45-1.73.72-2,1.49-3,2.56-3.34,7.85-8.63,10.99-12,11.73-12.58,24.23-24.47,35.56-37.42,25.41-4.49,52.02-4.25,77.16-10.83,4.18-1.09,14.53-3.87,16.29-7.73,1.88-4.14-5.77-27.59-7.75-33.2-20.16-57.19-67.51-115.74-114.27-153.66-21.69-17.59-45.94-31.56-69.83-45.91l-.75-1.59c3.73-14.46,6.28-29.37,10.39-43.71.68-2.38,2.15-10.58,4.77-10.39,4.24.32,26.32,13.39,31.61,16.43,100.37,57.71,173.94,146.95,204.25,259.64l10.08,42.4h.01Z"/>
  <path class="st1" d="M200,852.69l5.31-28.18c13.7-57.19,42.48-108.63,73.71-157.74,2.38-.42,1.85.26,2.45,1.98,5.07,14.59,7.29,35.48,11.62,51.41,1.91,7.05,7.39,16.6,5.15,23.31s-9.47,17.82-12.7,25.28c-4.97,11.51-12.17,28.05-15.02,39.96-1.77,7.35-4.23,11.38,3.8,15.17,8.71,4.12,23.05,7.48,32.65,9.34,91.23,17.68,187.92-14.05,264.39-62.41,6.05,7.19,36.52,32.66,36.56,40.38.02,3.07-5.16,6.44-7.59,8.33-21.41,16.64-61.41,34.05-87.08,43.9-96.92,37.19-176.47,39.59-276.47,11.96-6.37-1.76-30.42-7.81-34.18-10.81-1.37-1.09-1.57-2.64-2.6-3.9v-8,.02Z"/>
  <path class="st0" d="M636,956.65c-10.66.46-23.35.48-34,0-45.97-2.09-102.69-16.83-142.31-41.18-4.14-2.55-18.24-10.71-14.55-16.66,21.66-2.35,41.77-10.59,62.36-17,15.09,4.35,29.66,11.91,44.74,16.13,32.32,9.03,108.33,8.2,140.76-.77,77.94-21.55,151.51-85.61,180.75-161.18,2.16-5.58,14.36-45.86,16.79-46.28s8.06,5.96,9.97,8.03c10.59,11.43,19.65,25.32,30,37.06l.35,2.2c-19.98,51.22-48.13,96.98-88.85,134.2-57.65,52.69-127.93,82.06-206.01,85.45h0Z"/>
  <path class="st0" d="M466.99,344.91l-10.31,56.16c-5.65,23.19-30.39,39.11-45.66,57.32-62.11,74.05-81.39,184.4-43.2,274.03,13.14,30.84,30.06,60.38,53.16,84.79-.92,1.58-2.16,1.19-3.47,1.51-11.33,2.84-40.66,6.32-51.75,4.72-13.89-1.99-23.58-20.63-29.93-32.05-37.74-67.87-48.58-159.24-31.52-234.76,18.8-83.18,76.07-154.94,145.37-202.54,2.52-1.73,15.31-11.18,17.31-9.18h0Z"/>
  <path class="st0" d="M944.91,613.7c-1.19.82-3.97-.47-5.31-1.02-8.01-3.27-36.06-29.86-42.57-37.4-16.39-19.01-18.72-39.05-29.17-60.8-23.64-49.21-81.25-105.98-130.5-129.45-46.35-22.08-107.95-29.36-158.72-22-9.31,1.35-18.19,5.12-27.63,5.86-1.54-1.58,6.64-24.75,7.98-28.5,6.65-18.65,7.86-30.61,30.53-32.45,147.38-11.99,284.97,72.28,336.23,210.65,8.64,23.33,18.17,58.19,20.12,82.84.18,2.25.53,11.25-.96,12.28h0Z"/>
  <path class="st1" d="M538.72,581.1c4.01,3.3,8.71,24.1,11.01,30.46,29.01,80.29,110.07,161.67,187.59,196.32,15.12,6.76,31.22,10.75,46.23,17.76,4.37,3.85-3.36,9.69-6.54,12.57-11.75,10.63-27.45,18.36-40.07,28l-1.94.08c-73.83-33.65-139.4-80.62-187.82-146.22-27.66-37.47-47.12-78.56-64.21-121.73l49.78-18.34c1.98-.45,4.37-.21,5.96,1.11h.01Z"/>
  <path class="st1" d="M363,656.78c-.71-5.55-1.13-10.9-1.05-16.54.24-14.84,1.38-45.19,10.04-56.93,12.01-16.27,70.59-42.66,91.03-50.95,73.7-29.89,138.76-31.84,217.48-28.53,9.15.38,18.76-.34,27.88,1.12,11.05,1.76,7.62,7.15,6.44,16.22s-3.53,20.4-6.12,28.87c-1.5,4.91-2.44,10.08-7.69,12.38-21.61-1.4-42.9-7.39-64.54-8.58-74.28-4.1-163.14,23.89-223.81,66.15-14.62,10.18-27.48,23.63-41.8,33.19-2.42,1.61-4.74,3.94-7.88,3.62l.02-.02Z"/>
  <path class="st1" d="M730.01,402.89c22.1,7.86,42.15,22.2,58.78,38.68-.8,10.92-.39,21.89-.75,32.82-1.39,42.66-3.04,85.05-17.29,125.65-14.24,40.56-42.25,96.55-68.34,130.61-4.66,6.08-15.76,21.14-23.83,20.06-4.26-.57-26.02-19.35-30.6-23.46-2.44-2.19-11.02-9.27-10.78-11.85,8.42-11.21,18.29-21,26.61-32.33,39.36-53.62,61.65-118.32,67.18-184.74,2.63-31.58.41-63.94-.99-95.45h.01Z"/>
</svg>