<?xml version="1.0" encoding="UTF-8"?>
<svg id="Layer_1" xmlns="http://www.w3.org/2000/svg" version="1.1" viewBox="0 0 1209.83 258.05">
  <!-- Generator: Adobe Illustrator 29.4.0, SVG Export Plug-In . SVG Version: 2.1.0 Build 152)  -->
  <path d="M1175.87,21.02l4.01,76.01-8.96-.06c-2.76-21.43-9.8-50.29-31.36-60.14-2.58-1.18-13.97-4.81-16.19-4.81h-57.5l49.67,86.5-60.67,103.5h70.5c2.99,0,14.98-4.24,18.18-5.82,20.61-10.23,27.87-36.03,31.33-57.17h9l-3.01,82.99h-147l1.1-12.4,59.55-99.09-56.67-99.99.02-9.52h138,0Z"/>
  <path d="M510.87,21.02v5.01l-14,.99v197.5c0,.32,3.36,4.52,3.95,5.05,4.44,3.93,9.58,2.11,15.05,2.45v8.01h-52.01v-8.01c3.2-.35,12.32,1.13,14.08-1.66l.71-108.63-59.29-43.69-52.31,39.67-.08,100.7c1.5,12.35,7.49,13.47,18.89,12.61v9.01h-41.01v-9.01l10.01-.48,2.06-2.94.93-196.09c.07-7.13-6.87-5.34-12-5.48v-5.01h30.5l49.98,37.01,51.02-37.01h33.52ZM478.87,97.02V32.02l-43.01,33.49s43.01,31.51,43.01,31.51ZM366.87,102.02l42.98-31.5-42.98-31.5v63Z"/>
  <path d="M834.86,104.02c-3.83-1.38-8.07-14.11-11.51-13.81l-11.47,14.81c-2.89-19.32-7.69-40.7-20.5-56.01-24.51-29.29-65.23-24.72-84.03,7.99-26.67,46.41-25.23,179.01,52,172,44.04-3.99,54.77-67.06,53.76-102.24l13.26-17.73,11.5,14.56c-1.12,60.53-33.2,127.4-104.22,116.14-79.01-12.53-79.47-128.55-46.2-182.64,35.36-57.47,119-51.3,142.44,13.4,3.66,10.11,7.53,22.91,4.97,33.52h0ZM831.63,83.26c-6.19-6.21-8.71,8.56,1.23,7.75,0-2.11.31-6.2-1.23-7.75Z"/>
  <path d="M23.87,194.01l7.57.94c1.48,13.95-1.45,20.46,11.77,28.23,19.97,11.75,58.83,10.52,66.97-15.37,5.03-15.99-3.54-25.21-17.32-31.28-17.78-7.84-61.4-15.64-71.98-30.02-13.2-17.94-.36-39.77,15.96-50.09-3.44-4.56-7.6-6.59-10.76-12.11C9.75,55.77,45.01,23.46,72.5,19.13c10.2-1.61,36.62-.48,44.77,5.98,3.32,2.63,0,12.93-.39,17.4-.47,5.25-.13,13.17-1,18-.68,3.78-7.07,3.28-7.87.86-.68-5.44.21-16.12-2.58-20.42-6.49-9.99-29.31-12.07-39.95-10.84-18.77,2.17-35.74,20.47-25.64,39.43s63.37,20.75,81.04,34.96c21.83,17.54,10.45,43.41-8.99,57.01,35.84,23.29,3.1,67.53-27.24,76.78-15.75,4.8-35.13,4.5-50.74-.82-2.47-.84-11.5-4.61-12.53-6.46-2.18-3.92,3.58-30.43,2.48-37h.01ZM44.5,99.29c-4.03.44-10.95,12.3-11.56,16.29-2.08,13.58,6.12,20.75,17.41,25.46,16.92,7.06,36.38,10.71,53.51,17.59,3.89.51,8.34-8.5,9.49-11.64,7.45-20.34-6.42-27.93-22.97-34-14.83-5.44-30.84-8.81-45.89-13.71h.01Z"/>
  <path d="M646.87,20.02v11h-26.5c-5.66,0-8.66,7.57-8.53,12.47,2.91,55.94-3.75,115.58-.01,171.08.34,4.98,1.92,14.45,8.55,14.45h26.5v11h-99v-11h26.5c3.57,0,7.85-6.82,7.5-10.5l.05-177.05c.67-5.1-4.88-10.45-9.55-10.45h-24.5v-11h99-.01,0Z"/>
  <path d="M956.87,100.02h27.5c4.25,0,16.33-3.56,20.76-5.24,6.12-2.32,11.68-6.31,17.74-8.76v37c-21.94-7.65-43.98-7.56-67.01-7.01,1.53,27.18-2.04,56.56.02,83.49,1.14,14.83,6.65,28.88,11.98,42.52h-43c2.96-5.84,5.87-12.51,7.72-18.78,8.37-28.32,3.67-70.26,4.24-100.76.05-2.54,2.56-7.04-1-7.05-22.7.74-44.26-.28-65.96,7.59v-37c6.06,2.45,11.62,6.44,17.74,8.76,4.43,1.68,16.51,5.24,20.76,5.24h28.5l-9.37-14.13c-12.43-23.16-10.34-73.76,27.92-62.92,22.61,6.41,20.22,49.78,9.87,65.97-2.7,4.22-6.61,6.67-8.42,11.08h.01ZM941.58,32.23c-6.32,1.43-10.13,11.57-10.7,17.3-1.68,16.86,3.15,35.42,16.35,46.41,12.89-10.54,17.01-27.23,15.62-43.41-1.09-12.69-6.46-23.67-21.28-20.3h.01Z"/>
  <path d="M167.45,192.09c5.39-1.65,4.13,10.49,4.54,13.31,1.69,11.45,1.94,13.69,14.34,14.66,33.04,2.58,69.51-1.9,102.91-.16,6.92-1.03,14.37-3.55,19.51-8.49,4.29-4.12,9.31-17.51,12.1-18.91,3.09-1.55,4.97-.28,5.1,3.01.15,3.84-6.31,19.87-7.8,25.29-1.08,3.91-3.42,20.35-5.96,21.11-1.89.57-10.67-1.78-13.78-1.94-38.7-1.99-88.33-1.85-127.09,0-5.45.26-20.41,5.74-19.27-3.21,3.14-6.83,5.82-13.8,8.09-20.98,1.19-3.77,5-22.99,7.32-23.7h-.01Z"/>
  <path d="M318.83,22.05c.3,1.42,1.07,2.69.85,4.23-.55,3.93-4.98,12.81-6.31,17.74-1.1,4.06-4.41,24.39-7.02,25-5.25-1.51-4.09-7.53-5.42-11.56-2.31-7.01-8.6-9.4-15.52-9.48-30.35,2.03-63.96-2.63-93.91.17-6.95.65-11.92,2.2-17.15,6.85-2.37,2.11-12.32,16.18-15.47,13.02-.46-6.85,3.79-13.1,6.01-19.48,2.49-7.16,4.63-17,7.48-23.52,4.04-9.24,8.15-.24,13.2,1.79,3.34,1.35,8.12,2,11.75,2.25,32.71,2.26,68.04-1.77,101.03-.06,7.98-.05,13.48-5.17,20.47-6.96h.01Z"/>
  <path d="M277.52,115.67c1.25-1.17,9.14-15.7,11.26-8.02.36,1.32-4.27,22.91-4.78,27s-.62,25.34-3.63,25.35c-7.2-5.92-3.1-18.93-14.94-20.05-19.76-1.87-42.75,1.36-62.85.28-8.93,2.02-8.39,17.18-16.7,19.79-2.93-2.14,2.2-22.23,2.82-26.66.96-6.79,1.29-14.13,2.29-20.71.47-3.12,2.3-14.56,6.31-7.56,2.92,5.1,1.6,12.29,11.12,13.88,19.47-1.64,43,2.37,61.97.08,2.5-.3,5.34-1.71,7.13-3.38h0Z"/>
</svg>