<?xml version="1.0" encoding="UTF-8"?>
<svg id="Layer_1" xmlns="http://www.w3.org/2000/svg" version="1.1" viewBox="0 0 35.76 34.32">
  <!-- Generator: Adobe Illustrator 29.4.0, SVG Export Plug-In . SVG Version: 2.1.0 Build 152)  -->
  <path d="M2.38,4.17c.12-.59,2.49-2.93,2.98-2.9l2.98,2.66v12.75c.52.08,1.42-.72,1.79-.72h4.41v4.17c0,.39-.9,1.41-.71,2.02.14.14,2.3-.71,2.74-.71h3.46v4.17c0,.39-.9,1.41-.72,2.03h12.99l2.45,2.74c.02.26-2.46,3.36-3.22,3.16l-28.33.07-.82-.37V4.17ZM7.32,3.88c-.12-.15-1.83-1.51-1.96-1.51-.39.27-1.6,1.02-1.8,1.3-.32.43-.34,3.45-.17,4.02.23.76,2.32,2.02,2.52,2.36.37.63-.48,2.6,1.12,3.28.77,0,.71-3.1.55-3.64-.2-.68-2.02-1.88-2.53-2.47l-.04-2.7.84.23c.22,1.39-.25,2.89,1.54,3.34.26-.96.53-3.48-.07-4.22ZM3.7,9.3c-.51.11-.46,3.14-.31,3.64.23.78,2.18,1.86,2.45,2.31.47.78-.48,2.85,1.4,3.32,1.43-.89.49-1.04.4-1.78-.13-1,.29-1.73-.5-2.59-.35-.39-1.83-1.28-2.01-1.57-.47-.78.48-2.87-1.43-3.33ZM5.01,15.25l-1.08-.71-.59.36v17.76h17.76l.36-.59c-.21-.16-.99-1.08-1.07-1.08H5.01v-15.73ZM13.59,16.68c-2.84-.15-3.93-.17-5.81,1.94-.55.62-1.45,1.68-1.56,2.49s.22,3.48,1.31,2.73c.98-.68.32-1.18.34-2.03.03-1.36,2.57-4.3,3.84-3.12.9.84-.05,1.47.1,1.8.09.2,1.07,1.13,1.32.95.86-1.62.46-3.02.48-4.77ZM11.12,20.34c-.2-.18-1-.81-1.19-.78l-.85,1.02,3.68,3.72,1.07-1.07c-1-.76-1.84-2.09-2.7-2.89ZM5.96,30.03h3.46c.1,0,1.36-.78,1.45-.95-.42-2.12-1.76-.34-2.76-.84-2.05-1.03,2.31-3.79,2.76-4.65.29-.56-.69-1.03-.97-1.42-.53.68-3.93,3.62-3.93,4.17v3.69ZM16.64,22.23c-1.46.2-3.78,1.92-4.49,3.14-.45.77.11,1.84.97,1.44s3.33-4.54,4.42-2.27c.26.55-.62,2.71,1.19,2.16.84-.72.62-3.28.48-4.32-.28-.41-2.03-.23-2.57-.16ZM9.93,25.04c-.39.28-.98.71-.84,1.24.06.24,2.4,2.53,2.76,2.75,1.41.88,3.33,1.1,4.61-.09-.53-1.61-1.45-.72-2.48-.83-1.53-.17-3.47-3.17-4.04-3.08ZM16.84,26.06c-.36-.34-.92-.57-1.23-1.03l-1.07,1.07c1.02.67,2.91,3.4,3.81,3.81.74.34,1.68-.1,2.38.24.48.23,1.45,2.21,2.12,2.4.59.17,3.72.31,3.84-.26-.52-1.8-2.12-.99-3.09-1.43-.71-.32-1.62-2.05-2.21-2.32-.83-.39-1.81.04-2.56-.3-.59-.27-1.5-1.71-1.99-2.18ZM26.87,28.67c-.58-.47-3.23-.43-3.93-.13s.46,1.33.83,1.44c.67.2,1.68-.16,2.22.17.38.23,1.67,2.33,2.07,2.46l3.92-.06,1.62-1.73c-.92-2.64-3.14-2.9-5.7-2.21.45,1.79,1.95,1.32,3.34,1.54l.23.84c-.65-.13-2.36.21-2.81-.05-.17-.1-1.46-2-1.79-2.26Z"/>
</svg>