<?xml version="1.0" encoding="UTF-8"?>
<svg id="Layer_1" xmlns="http://www.w3.org/2000/svg" version="1.1" viewBox="0 0 1500 500">
  <!-- Generator: Adobe Illustrator 29.4.0, SVG Export Plug-In . SVG Version: 2.1.0 Build 152)  -->
  <defs>
    <style>
      .st0 {
        fill: #ead9a3;
      }

      .st1 {
        fill: #d3ae37;
      }

      .st2 {
        fill: #0b0b0b;
      }

      .st3 {
        fill: #9b916f;
      }

      .st4 {
        fill: #9d8e5f;
      }
    </style>
  </defs>
  <path class="st2" d="M328,346c-1.98-.98-3.66-1.71-5.55-.06l-68.43,68.58c-1.38,1.25-3.34,2.86-5.31,2.35L83.14,251.28l.81-3.84L248.03,83.46l2.22-.29c25.74,23.09,48.8,49.56,74.41,72.67,2.78.12,27.49-28.51,32.87-30.81l282.04-.09,5.64,2.13,29.28,29.93c5.13-2.51,7.82-7.76,11.49-11.52,20.22-20.77,41.33-40.71,61.49-61.55,1.73-1.66,2.88-.57,4.54.08,1.41.75,2.41,1.75,3,3,1.73,1.58,3.31,3.36,5,5l3,3c1.69,1.64,3.32,3.34,5,5l3,3c1.68,1.66,3.33,3.33,5,5l3,3c1.67,1.67,3.33,3.33,5,5l3,3c1.67,1.67,3.33,3.33,5,5l3,3c1.67,1.67,3.33,3.33,5,5l3,3c1.67,1.67,3.33,3.33,5,5l3,3c1.67,1.67,3.34,3.32,5,5l3,3c1.88,1.85,4.35,5.6,7.29,4.85,1.12-.28,11.7-11.77,13.71-13.85l3-3c1.69-1.73,3.25-3.31,5-5l3-3c2.17-2.03,3.74-6.12,7.45-6.05h281.11c3.17-.52,4.4,1.62,6.44,3.05l3,3,3,3c.68.65,1.32,1.34,2,2l3,3,3,3c.67.66,1.33,1.34,2,2l3,3,3,3c.67.66,1.33,1.33,2,2l3,3c.82.99,2.64,1.15,3.52.09l73.73-71.93,166.63,166.49-165.85,166.95-3.56-.54-72.96-72.1c-1.53,0-5.75,4.6-7.07,5.98-1.69,1.76-2.88,3.09-4.47,4.73-5.39,5.56-11.6,13.52-17.42,18.32-1.24,1.02-2.45,1.8-4.1,1.94-95.28-.48-190.94,1.27-285.99-.88-4.27-3.5-28.33-30.09-30.95-30.09-9.52,7.29-69.72,73.2-75.03,73.02s-62.81-64.52-72.49-71.52c-3.93-1.82-8.88,7.62-12.98,8.53-.7,1.22-1.72,2.47-3,3-.19,1.48-1.65,2.48-3,3-.66.63-1.31,1.34-2,2-.47,1.4-1.62,2.48-3,3-.43,1.51-1.53,2.45-3,3-2.65,2.64-5.64,7.35-9,8-95.03.11-190.03-.23-285-1-2.39-1.86-6.11-6.4-9-9l-3-4c-1.55-1.39-3.44-2.62-5-4l-3-4c-1.55-1.39-3.44-2.62-5-4l-3-4Z"/>
  <path class="st4" d="M641,376c-.32.06-.67-.05-1,0-93.25.98-186.59.98-280,0-1.85.28-2.55.13-4-1l285,1Z"/>
  <path class="st0" d="M640,376c-1.04,1.66-3.79,1-5.49,1.02-91.37,1.13-183.44-.05-274.51-1.02h280Z"/>
  <path class="st3" d="M339,358c-1.3-1.16-3.1-1.52-3-4,1.29,1.16,3.1,1.52,3,4Z"/>
  <path class="st3" d="M662,357c-1.16,1.33-1.54,3.1-4,3,.99-.94,1.79-1.9,3-3h1Z"/>
  <path class="st3" d="M347,366c-1.28-1.15-3.11-1.52-3-4,1.29,1.16,3.1,1.52,3,4Z"/>
  <path class="st3" d="M654,365c-1.17,1.33-1.53,2.98-4,3,1-1,1.98-2,3-3h1Z"/>
  <path class="st3" d="M331,350c-1.3-1.16-3.1-1.52-3-4,1.73.86,2.93,1.93,3,4Z"/>
  <path class="st3" d="M1157,139l-3-3c.91.88,2.1,2.11,3,3Z"/>
  <path class="st1" d="M803,135l-3-3c.81.81,2.17,2.17,3,3Z"/>
  <path class="st3" d="M1152,134c-1.67-.43-2.11-2.11-3-3,1.3,1.21,2.14,2.17,3,3Z"/>
  <path class="st3" d="M1149,131l-3-3c2.82,1.98,2.01,2.08,3,3Z"/>
  <path class="st1" d="M795,127l-3-3c.81.81,2.17,2.17,3,3Z"/>
  <path class="st1" d="M787,119l-3-3c.81.81,2.17,2.17,3,3Z"/>
  <path class="st1" d="M779,111l-3-3c.82.81,2.17,2.17,3,3Z"/>
  <path class="st1" d="M771,103l-3-3c.82.82,2.17,2.18,3,3Z"/>
  <path class="st1" d="M763,95l-3-3c.85.83,2.19,2.21,3,3Z"/>
  <path class="st1" d="M755,87c-.99-.9-2.52-1.34-3-3,1.68.65,3.13.21,3,3Z"/>
  <path class="st3" d="M1173,155l-3-3c1.22,1.23,1.27.91,3,3Z"/>
  <path class="st1" d="M819,151l-3-3c.74.75,2.23,2.24,3,3Z"/>
  <path class="st3" d="M1168,150c-1.67-.43-2.11-2.11-3-3,.87.87,2.17,2.18,3,3Z"/>
  <path class="st3" d="M1165,147l-3-3c.87.86,2.1,2.1,3,3Z"/>
  <path class="st1" d="M811,143l-3-3c.8.8,2.17,2.17,3,3Z"/>
  <path class="st3" d="M1160,142c-1.67-.43-2.11-2.11-3-3,.91.9,2.15,2.15,3,3Z"/>
  <path class="st3" d="M851,131l-3,3c.9-.87,1.71-1.8,3-3Z"/>
  <path class="st3" d="M662,357h-1c.84-.76,1.35-2.61,3-3,.28,2-1.29,2.19-2,3Z"/>
  <path class="st3" d="M654,365h-1c1.02-1.01,1.94-1.99,3-3,.27,2-1.28,2.19-2,3Z"/>
  <path class="st3" d="M843,139l-3,3c.9-.93,2.19-2.17,3-3Z"/>
  <path class="st1" d="M249.64,118.07l86,84.86c1.78.31,14.83-14.31,17.29-16.56l-9.91-10.86,23.43-24.55c88.07-2.18,176.74-.35,265.03-.92l2.08.92,50.92,51.11,1.89.87,16.56-16.56c.46-2.64-11.05-9.31-9.49-12.35l56.2-55.94,86.73,84.86,16.56-16.56-9.91-10.86c8.77-8.15,15.64-18.68,25.5-25.48l261.04-.08,3.99,1.01,50.92,51.11,1.89.87,16.56-16.56c.46-2.64-11.05-9.31-9.49-12.35l56.92-55.94,131.56,132.29-131.56,131.56-86-84.86c-1.78-.31-14.83,14.31-17.29,16.56-.46,2.64,11.05,9.31,9.49,12.35l-23.01,23.06c-88.57,1.57-178.42,1.58-267.11,0l-50.92-51.11-1.89-.87-16.56,16.56c-.46,2.64,11.05,9.31,9.49,12.35l-56.92,55.94-85.27-84.86c-1.78-.31-14.83,14.31-17.29,16.56-.46,2.64,11.05,9.31,9.49,12.35l-23.01,23.06c-88.57,1.57-178.42,1.58-267.11,0l-50.92-51.11-1.89-.87-16.56,16.56c-.46,2.64,11.05,9.31,9.49,12.35l-56.92,55.94L118.07,249.64,249.64,118.07Z"/>
  <path class="st2" d="M249.64,158.07l27.42,26.4c.98.86,1.1,1.35.5,2.52-.52,1.01-15.08,15.74-16.2,15.94-3.54-.59-9.38-11.02-12.35-9.49l-55.94,56.92,56.56,56.56,48.86-47.91,17.48,17.48-65.62,65.43-92.29-91.56,91.56-92.29Z"/>
  <path class="st2" d="M1249.64,158.07l92.29,91.56-91.56,92.29-27.42-26.4c-.98-.86-1.1-1.35-.5-2.52.52-1.01,15.08-15.74,16.2-15.94,3.54.59,9.38,11.02,12.35,9.49l55.94-56.92-56.56-56.56-48.86,47.91-17.48-17.48,65.62-65.43Z"/>
  <path class="st2" d="M394.7,163.2h35.59l29.69,29.3-17.48,17.48c-1.59,0-18.96-20.85-22.52-22.46-1.91-.87-12.2-.93-14.28-.31l-54.2,53.78-17.48-17.48,60.69-60.3Z"/>
  <path class="st2" d="M1148.5,259.02l17.48,17.48-60.69,60.3h-35.59l-29.69-29.3,17.48-17.48c1.59,0,18.96,20.85,22.52,22.46,1.91.87,12.2.93,14.28.31l54.2-53.78Z"/>
  <path class="st2" d="M894.7,163.2l36.28.31,27.08,26.94.98,2.05c0,1.92-13.67,14.93-16.54,16.54-3.44,0-18.21-19.56-22.52-21.52-2.26-1.02-11.52-.85-14.04-.07l-54.45,53.54-17.48-17.48,60.69-60.3Z"/>
  <path class="st2" d="M648.5,259.02l17.48,17.48-60.69,60.3h-35.59l-29.69-29.3c5.9-5.35,10.93-12.17,17.48-16.54,3.44,0,18.21,19.56,22.52,21.52,1.91.87,12.2.93,14.28.31l54.2-53.78Z"/>
  <path class="st2" d="M973.5,259.02l17.48,17.48-60,59.98-36.28.31-22.63-22.43c-.16-.9,11.02-12.64,12.37-13.42,10.39-5.96,15.13,10.03,21.26,11.85,2.08.62,12.37.55,14.28-.31l53.52-53.46Z"/>
  <path class="st2" d="M1069.7,163.2h35.59c2.93,2.72,22.93,21.47,22.63,23.16-5.88,4.89-12.54,17.82-21.48,12.69-3.09-1.78-9.16-10.96-12.15-11.85-2.08-.62-12.37-.55-14.28.31l-53.52,53.46-17.48-17.48,60.69-60.3Z"/>
  <path class="st2" d="M473.5,259.02l17.48,17.48-60,59.98-36.28.31-22.63-22.43c-.16-.9,11.02-12.64,12.37-13.42,10.39-5.96,15.13,10.03,21.26,11.85,2.08.62,12.37.55,14.28-.31l53.52-53.46Z"/>
  <path class="st2" d="M569.7,163.2h35.59c2.93,2.72,22.93,21.47,22.63,23.16-5.88,4.89-12.54,17.82-21.48,12.69-3.09-1.78-9.16-10.96-12.15-11.85-2.08-.62-12.37-.55-14.28.31l-53.52,53.46-17.48-17.48,60.69-60.3Z"/>
  <path class="st2" d="M1238.64,222.07l28.29,28.29-65.43,65.62-17.48-17.48,47.54-47.51c1.57-3.05-9.95-9.71-9.49-12.35l16.56-16.56Z"/>
  <path class="st2" d="M798.5,259.02l17.48,17.48-66.97,65.06c-6.51-8.67-20.27-17.6-26.07-26.03-.72-1.05-1.25-1.08-.5-2.52.52-1.01,15.08-15.74,16.2-15.94,3.54.59,9.38,11.02,12.35,9.49l47.51-47.54Z"/>
  <path class="st2" d="M298.5,184.02l17.48,17.48-47.54,47.51c-1.57,3.05,9.95,9.71,9.49,12.35-2.46,2.26-15.51,16.88-17.29,16.56l-27.56-28.29,65.43-65.62Z"/>
  <path class="st2" d="M749.64,158.07l28.29,28.29-16.56,16.56c-2.64.46-9.31-11.05-12.35-9.49l-47.51,47.54-17.48-17.48,65.62-65.43Z"/>
  <path class="st2" d="M410.63,259.07c1.19-.21,16.96,15.47,17.26,16.63.49,1.88-7.27,10.03-8.91,10.78-6.6,2.99-29.82-1.34-38.28.72l-29.2,28.78-17.48-17.48,35-34.98c5.96-2.71,28.21,1.03,36.46-.54,2.77-.53,3.86-3.68,5.15-3.91Z"/>
  <path class="st2" d="M648.5,184.02l17.48,17.48-35,34.98c-5.95,2.7-28.21-1.02-36.46.54-2.79.53-4.06,4.23-5.89,3.91-1.12-.2-15.69-14.92-16.17-15.95-1.69-3.66,6.87-9.31,9.24-11.77l38.28-.72,28.52-28.46Z"/>
  <path class="st2" d="M1148.5,184.02l17.48,17.48-35,34.98c-5.95,2.7-28.21-1.02-36.46.54-2.79.53-4.06,4.23-5.89,3.91-1.12-.2-15.69-14.92-16.17-15.95-1.69-3.66,6.87-9.31,9.24-11.77l38.28-.72,28.52-28.46Z"/>
  <path class="st2" d="M910.63,259.07c1.19-.21,16.96,15.47,17.26,16.63.49,1.88-7.27,10.03-8.91,10.78-6.6,2.99-29.82-1.34-38.28.72l-29.2,28.78-17.48-17.48,35-34.98c5.96-2.71,28.21,1.03,36.46-.54,2.77-.53,3.86-3.68,5.15-3.91Z"/>
  <path class="st2" d="M535.64,259.07c1.11-.19,15.24,13.62,16.42,15.38.63.93,1.3,1.6.83,2.84l-53.26,52.63c-2.7-2.93-21.88-20.49-21.56-22.29,2.47-1.92,16.19-17.62,17.43-17.62.91,0,3.38,5.2,5.49,3.54l34.65-34.49Z"/>
  <path class="st2" d="M999.64,170.07c1.56-.28,20.34,19.13,22.29,22.29-2.47,1.92-16.19,17.62-17.43,17.62-.91,0-3.38-5.2-5.49-3.54l-35.37,34.49c-1.08-.19-14.73-13.94-15.7-15.38-.63-.93-1.3-1.6-.83-2.84l52.53-52.63Z"/>
  <path class="st2" d="M499.64,170.07c1.56-.28,20.34,19.13,22.29,22.29-2.47,1.92-16.19,17.62-17.43,17.62-.91,0-3.38-5.2-5.49-3.54l-35.37,34.49c-1.08-.19-14.73-13.94-15.7-15.38-.63-.93-1.3-1.6-.83-2.84l52.53-52.63Z"/>
  <path class="st2" d="M1035.64,259.07c1.11-.19,15.24,13.62,16.42,15.38.63.93,1.3,1.6.83,2.84l-53.26,52.63c-2.7-2.93-21.88-20.49-21.56-22.29,2.47-1.92,16.19-17.62,17.43-17.62.91,0,3.38,5.2,5.49,3.54l34.65-34.49Z"/>
  <path class="st2" d="M626,263l-23.02,23.48h-21.96l-41-40.98c2.81-2.16,16.45-17.76,18.34-17.43,5.31,3.05,32.66,34.93,35.14,34.93h32.5Z"/>
  <path class="st2" d="M1126,263l-23.02,23.48h-21.96l-41-40.98c2.81-2.16,16.45-17.76,18.34-17.43,5.31,3.05,32.66,34.93,35.14,34.93h32.5Z"/>
  <path class="st2" d="M374,237l23.02-23.48h21.96l41,40.98c-2.81,2.16-16.45,17.76-18.34,17.43-5.31-3.05-32.66-34.93-35.14-34.93h-32.5Z"/>
  <path class="st2" d="M874,237l23.02-23.48h21.96l39.91,40.18c.46,1.24-.21,1.91-.83,2.84-.97,1.44-14.61,15.19-15.7,15.38-5.92-2.39-33.36-34.93-35.86-34.93h-32.5Z"/>
  <rect class="st2" x="684.58" y="275.14" width="55.84" height="24.72" transform="translate(5.39 588.02) rotate(-45)"/>
  <rect class="st2" x="759.58" y="200.14" width="55.84" height="24.72" transform="translate(80.39 619.09) rotate(-45)"/>
  <path class="st2" d="M738.64,222.07l39.29,38.56c.31,1.78-14.31,14.83-16.56,17.29l-39.29-38.56c-.31-1.78,14.31-14.83,16.56-17.29Z"/>
  <path class="st2" d="M813.64,222.07l39.29,38.56c.31,1.78-14.31,14.83-16.56,17.29l-39.29-38.56c-.31-1.78,14.31-14.83,16.56-17.29Z"/>
  <path class="st2" d="M1163.64,222.07l39.29,38.56c.31,1.78-14.31,14.83-16.56,17.29l-39.29-38.56c-.31-1.78,14.31-14.83,16.56-17.29Z"/>
  <path class="st2" d="M313.64,222.07l39.29,38.56c.31,1.78-14.31,14.83-16.56,17.29l-39.29-38.56c-.31-1.78,14.31-14.83,16.56-17.29Z"/>
  <path class="st2" d="M663.64,222.07l39.29,38.56c.31,1.78-14.31,14.83-16.56,17.29l-39.29-38.56c-.31-1.78,14.31-14.83,16.56-17.29Z"/>
  <path class="st2" d="M994.64,228.07l27.29,26.56c.31,1.78-14.31,14.83-16.56,17.29l-27.29-26.56c-.31-1.78,14.31-14.83,16.56-17.29Z"/>
  <path class="st2" d="M494.64,228.07l27.29,26.56c.31,1.78-14.31,14.83-16.56,17.29l-27.29-26.56c-.31-1.78,14.31-14.83,16.56-17.29Z"/>
</svg>