<?xml version="1.0" encoding="UTF-8"?>
<svg id="Layer_1" xmlns="http://www.w3.org/2000/svg" version="1.1" viewBox="0 0 1250 1250">
  <!-- Generator: Adobe Illustrator 29.4.0, SVG Export Plug-In . SVG Version: 2.1.0 Build 152)  -->
  <defs>
    <style>
      .st0 {
        fill: #d3ae37;
      }

      .st1 {
        fill: #0b0b0b;
      }

      .st2 {
        fill: #fefefe;
      }
    </style>
  </defs>
  <path class="st2" d="M627,127c-74.79,60.92-126.27,141.26-147.51,235.89-8.01,35.71-15.66,89.45-11.47,125.44.56,4.79,2.87,20.69,8.63,21.26l48.23-12.88,1.09-62.38c5.94-68.98,27.86-140.78,72.07-194.85,9.42-11.52,20.52-21.58,29.95-33.08,1.72-1.12,2.96.97,4.05,2.05,13.42,13.3,28.86,31.76,39.79,47.19,10.92,15.42,18.97,33.05,32.64,46.34,18.02,2.93,35.04,11.67,52.73,15.26,2.24.46,7.98,2.72,8.74.05,1.39-4.92-14.14-35.98-17.4-42.37-28.74-56.24-68.61-107.95-117.52-147.92h419v730.69l-10.08-42.4c-30.31-112.69-103.88-201.93-204.25-259.64-5.29-3.04-27.37-16.11-31.61-16.43-2.62-.2-4.09,8.01-4.77,10.39-4.11,14.34-6.66,29.25-10.39,43.71l.75,1.59c23.88,14.34,48.14,28.32,69.83,45.91,46.76,37.92,94.11,96.47,114.27,153.66,1.98,5.61,9.63,29.07,7.75,33.2-1.76,3.86-12.11,6.64-16.29,7.73-25.14,6.59-51.75,6.35-77.16,10.83-11.33,12.95-23.83,24.85-35.56,37.42-3.15,3.37-8.43,8.67-10.99,12-.77,1-1.94,1.27-1.49,3,23.79-.61,47.75.81,71.54.05,35.21-1.14,71.48-5.35,105.23-15.77,11.46-3.54,24.05-7.49,33.23-15.26v88.96h-414c78.08-3.39,148.36-32.76,206.01-85.45,40.73-37.22,68.87-82.98,88.85-134.2l-.35-2.2c-10.36-11.74-19.41-25.63-30-37.06-1.91-2.06-7.47-8.46-9.97-8.03s-14.63,40.69-16.79,46.28c-29.25,75.57-102.81,139.63-180.75,161.18-32.43,8.96-108.44,9.8-140.76.77-15.08-4.21-29.64-11.78-44.74-16.13-20.58,6.41-40.7,14.66-62.36,17-3.69,5.95,10.41,14.11,14.55,16.66,39.62,24.35,96.34,39.09,142.31,41.18H200v-95.96c1.04,1.26,1.24,2.8,2.6,3.9,3.76,3,27.82,9.06,34.18,10.81,99.99,27.63,179.54,25.23,276.47-11.96,25.67-9.85,65.67-27.26,87.08-43.9,2.43-1.89,7.61-5.25,7.59-8.33-.04-7.72-30.51-33.2-36.56-40.38-76.47,48.36-173.16,80.09-264.39,62.41-9.6-1.86-23.94-5.23-32.65-9.34-8.04-3.8-5.57-7.82-3.8-15.17,2.86-11.91,10.05-28.45,15.02-39.96,3.22-7.46,10.57-18.9,12.7-25.28,2.24-6.71-3.24-16.26-5.15-23.31-4.32-15.93-6.54-36.82-11.62-51.41-.6-1.72-.07-2.41-2.45-1.98-31.23,49.1-60.01,100.55-73.71,157.74l-5.31,28.18V127h427ZM944.91,613.7c1.49-1.02,1.14-10.03.96-12.28-1.95-24.65-11.48-59.51-20.12-82.84-51.26-138.37-188.86-222.64-336.23-210.65-22.68,1.84-23.89,13.8-30.53,32.45-1.34,3.75-9.52,26.92-7.98,28.5,9.44-.73,18.32-4.51,27.63-5.86,50.77-7.36,112.37-.09,158.72,22,49.25,23.46,106.86,80.24,130.5,129.45,10.45,21.76,12.78,41.8,29.17,60.8,6.51,7.55,34.56,34.14,42.57,37.4,1.34.55,4.12,1.83,5.31,1.02ZM466.99,344.91c-2-2.01-14.79,7.45-17.31,9.18-69.3,47.6-126.58,119.36-145.37,202.54-17.06,75.52-6.22,166.89,31.52,234.76,6.35,11.42,16.04,30.06,29.93,32.05,11.09,1.59,40.42-1.88,51.75-4.72,1.31-.33,2.55.07,3.47-1.51-23.09-24.41-40.02-53.95-53.16-84.79-38.19-89.63-18.91-199.99,43.2-274.03,15.27-18.21,40.01-34.13,45.66-57.32l10.31-56.16ZM730.01,402.89c1.39,31.51,3.61,63.87.99,95.45-5.53,66.42-27.82,131.12-67.18,184.74-8.31,11.33-18.19,21.12-26.61,32.33-.24,2.58,8.34,9.66,10.78,11.85,4.57,4.11,26.33,22.89,30.6,23.46,8.08,1.08,19.17-13.98,23.83-20.06,26.09-34.06,54.1-90.05,68.34-130.61,14.25-40.6,15.9-82.99,17.29-125.65.36-10.93-.05-21.9.75-32.82-16.63-16.48-36.69-30.82-58.78-38.68ZM363,656.78c3.15.32,5.47-2,7.88-3.62,14.31-9.56,27.18-23.01,41.8-33.19,60.67-42.26,149.52-70.24,223.81-66.15,21.63,1.19,42.92,7.19,64.54,8.58,5.25-2.3,6.19-7.47,7.69-12.38,2.59-8.47,4.98-20.07,6.12-28.87s4.6-14.45-6.44-16.22c-9.12-1.46-18.73-.73-27.88-1.12-78.72-3.31-143.78-1.36-217.48,28.53-20.44,8.29-79.02,34.67-91.03,50.95-8.67,11.74-9.81,42.09-10.04,56.93-.09,5.64.33,10.99,1.05,16.54ZM538.72,581.1c-1.59-1.31-3.99-1.55-5.96-1.11l-49.78,18.34c17.09,43.17,36.55,84.26,64.21,121.73,48.42,65.61,113.99,112.58,187.82,146.22l1.94-.08c12.62-9.64,28.32-17.37,40.07-28,3.18-2.88,10.9-8.72,6.54-12.57-15.01-7-31.11-11-46.23-17.76-77.53-34.65-158.58-116.03-187.59-196.32-2.3-6.36-7-27.16-11.01-30.46Z"/>
  <path class="st1" d="M631,127c48.91,39.97,88.78,91.68,117.52,147.92,3.26,6.39,18.79,37.45,17.4,42.37-.76,2.68-6.5.41-8.74-.05-17.69-3.59-34.71-12.33-52.73-15.26-13.67-13.29-21.72-30.92-32.64-46.34-10.92-15.43-26.37-33.89-39.79-47.19-1.09-1.08-2.33-3.17-4.05-2.05-9.43,11.5-20.54,21.57-29.95,33.08-44.21,54.07-66.13,125.87-72.07,194.85l-1.09,62.38-48.23,12.88c-5.76-.57-8.07-16.47-8.63-21.26-4.19-35.99,3.46-89.74,11.47-125.44,21.24-94.62,72.72-174.97,147.51-235.89h4Z"/>
  <path class="st1" d="M1050,857.69l1.42,9.7c-9.18,7.77-23.19,12.02-34.65,15.56-33.74,10.41-70.01,14.63-105.23,15.77-23.79.77-47.74-.65-71.54-.05-.45-1.73.72-2,1.49-3,2.56-3.34,7.85-8.63,10.99-12,11.73-12.58,24.23-24.47,35.56-37.42,25.41-4.49,52.02-4.25,77.16-10.83,4.18-1.09,14.53-3.87,16.29-7.73,1.88-4.14-5.77-27.59-7.75-33.2-20.16-57.19-67.51-115.74-114.27-153.66-21.69-17.59-45.94-31.56-69.83-45.91l-.75-1.59c3.73-14.46,6.28-29.37,10.39-43.71.68-2.38,2.15-10.58,4.77-10.39,4.24.32,26.32,13.39,31.61,16.43,100.37,57.71,173.94,146.95,204.25,259.64l10.08,42.4Z"/>
  <path class="st1" d="M200,852.69l5.31-28.18c13.7-57.19,42.48-108.63,73.71-157.74,2.38-.42,1.85.26,2.45,1.98,5.07,14.59,7.29,35.48,11.62,51.41,1.91,7.05,7.39,16.6,5.15,23.31s-9.47,17.82-12.7,25.28c-4.97,11.51-12.17,28.05-15.02,39.96-1.77,7.35-4.23,11.38,3.8,15.17,8.71,4.12,23.05,7.48,32.65,9.34,91.23,17.68,187.92-14.05,264.39-62.41,6.05,7.19,36.52,32.66,36.56,40.38.02,3.07-5.16,6.44-7.59,8.33-21.41,16.64-61.41,34.05-87.08,43.9-96.92,37.19-176.47,39.59-276.47,11.96-6.37-1.76-30.42-7.81-34.18-10.81-1.37-1.09-1.57-2.64-2.6-3.9v-8Z"/>
  <path class="st0" d="M636,956.65c-10.66.46-23.35.48-34,0-45.97-2.09-102.69-16.83-142.31-41.18-4.14-2.55-18.24-10.71-14.55-16.66,21.66-2.35,41.77-10.59,62.36-17,15.09,4.35,29.66,11.91,44.74,16.13,32.32,9.03,108.33,8.2,140.76-.77,77.94-21.55,151.51-85.61,180.75-161.18,2.16-5.58,14.36-45.86,16.79-46.28s8.06,5.96,9.97,8.03c10.59,11.43,19.65,25.32,30,37.06l.35,2.2c-19.98,51.22-48.13,96.98-88.85,134.2-57.65,52.69-127.93,82.06-206.01,85.45Z"/>
  <path class="st0" d="M466.99,344.91l-10.31,56.16c-5.65,23.19-30.39,39.11-45.66,57.32-62.11,74.05-81.39,184.4-43.2,274.03,13.14,30.84,30.06,60.38,53.16,84.79-.92,1.58-2.16,1.19-3.47,1.51-11.33,2.84-40.66,6.32-51.75,4.72-13.89-1.99-23.58-20.63-29.93-32.05-37.74-67.87-48.58-159.24-31.52-234.76,18.8-83.18,76.07-154.94,145.37-202.54,2.52-1.73,15.31-11.18,17.31-9.18Z"/>
  <path class="st0" d="M944.91,613.7c-1.19.82-3.97-.47-5.31-1.02-8.01-3.27-36.06-29.86-42.57-37.4-16.39-19.01-18.72-39.05-29.17-60.8-23.64-49.21-81.25-105.98-130.5-129.45-46.35-22.08-107.95-29.36-158.72-22-9.31,1.35-18.19,5.12-27.63,5.86-1.54-1.58,6.64-24.75,7.98-28.5,6.65-18.65,7.86-30.61,30.53-32.45,147.38-11.99,284.97,72.28,336.23,210.65,8.64,23.33,18.17,58.19,20.12,82.84.18,2.25.53,11.25-.96,12.28Z"/>
  <path class="st1" d="M538.72,581.1c4.01,3.3,8.71,24.1,11.01,30.46,29.01,80.29,110.07,161.67,187.59,196.32,15.12,6.76,31.22,10.75,46.23,17.76,4.37,3.85-3.36,9.69-6.54,12.57-11.75,10.63-27.45,18.36-40.07,28l-1.94.08c-73.83-33.65-139.4-80.62-187.82-146.22-27.66-37.47-47.12-78.56-64.21-121.73l49.78-18.34c1.98-.45,4.37-.21,5.96,1.11Z"/>
  <path class="st1" d="M363,656.78c-.71-5.55-1.13-10.9-1.05-16.54.24-14.84,1.38-45.19,10.04-56.93,12.01-16.27,70.59-42.66,91.03-50.95,73.7-29.89,138.76-31.84,217.48-28.53,9.15.38,18.76-.34,27.88,1.12,11.05,1.76,7.62,7.15,6.44,16.22s-3.53,20.4-6.12,28.87c-1.5,4.91-2.44,10.08-7.69,12.38-21.61-1.4-42.9-7.39-64.54-8.58-74.28-4.1-163.14,23.89-223.81,66.15-14.62,10.18-27.48,23.63-41.8,33.19-2.42,1.61-4.74,3.94-7.88,3.62Z"/>
  <path class="st1" d="M730.01,402.89c22.1,7.86,42.15,22.2,58.78,38.68-.8,10.92-.39,21.89-.75,32.82-1.39,42.66-3.04,85.05-17.29,125.65-14.24,40.56-42.25,96.55-68.34,130.61-4.66,6.08-15.76,21.14-23.83,20.06-4.26-.57-26.02-19.35-30.6-23.46-2.44-2.19-11.02-9.27-10.78-11.85,8.42-11.21,18.29-21,26.61-32.33,39.36-53.62,61.65-118.32,67.18-184.74,2.63-31.58.41-63.94-.99-95.45Z"/>
</svg>