<?xml version="1.0" standalone="no"?>
<!DOCTYPE svg PUBLIC "-//W3C//DTD SVG 20010904//EN"
 "http://www.w3.org/TR/2001/REC-SVG-20010904/DTD/svg10.dtd">
<svg version="1.0" xmlns="http://www.w3.org/2000/svg"
 width="300.000000pt" height="397.000000pt" viewBox="0 0 300.000000 397.000000"
 preserveAspectRatio="xMidYMid meet">
<metadata>
Created by potrace 1.10, written by Peter Selinger 2001-2011
</metadata>
<g transform="translate(0.000000,397.000000) scale(0.100000,-0.100000)"
fill="#000000" stroke="none">
<path d="M1453 3143 c-100 -137 -180 -277 -242 -427 -23 -54 -41 -99 -41 -100
0 0 35 0 77 1 l77 2 12 33 c28 80 148 288 167 288 12 0 17 -7 89 -133 147
-256 209 -541 163 -742 -31 -130 -78 -218 -172 -316 l-55 -58 54 -31 53 -31
52 57 c154 166 232 419 203 653 -15 119 -31 192 -68 301 -55 160 -161 357
-277 513 l-43 58 -49 -68z m63 -21 c19 -14 130 -189 169 -268 21 -43 42 -81
45 -84 4 -3 15 -30 25 -60 10 -30 22 -64 28 -75 6 -11 12 -24 13 -30 1 -5 12
-45 23 -87 49 -188 48 -377 -4 -531 -48 -142 -170 -322 -201 -296 -11 9 -7 19
24 58 146 176 198 372 161 601 -12 78 -52 219 -74 262 -8 17 -15 35 -15 40 0
14 -47 111 -96 197 -42 76 -74 113 -106 124 -27 9 -93 -73 -159 -198 -49 -94
-62 -110 -85 -113 -25 -3 -26 -2 -20 24 19 73 149 313 224 412 26 34 31 36 48
24z"/>
<path d="M458 2563 c16 -24 233 -395 303 -520 13 -24 26 -43 29 -43 3 0 28 22
54 49 l49 49 -94 164 c-52 89 -95 167 -97 173 -2 7 168 9 504 7 480 -2 505 -2
500 15 -2 10 -12 44 -22 76 l-18 57 -614 0 -613 0 19 -27z m1176 -29 c9 -8 16
-22 16 -30 0 -15 -41 -16 -666 -18 -364 -1 -362 1 -238 -213 100 -172 100
-172 78 -188 -11 -8 -22 -15 -26 -15 -6 0 -48 67 -102 165 -6 11 -46 82 -89
157 -44 75 -76 142 -72 148 4 7 180 10 545 10 476 0 540 -2 554 -16z"/>
<path d="M1876 2568 c4 -13 13 -45 19 -73 l12 -50 201 0 c111 0 202 -1 202 -3
0 -1 -51 -91 -114 -200 -63 -108 -175 -303 -249 -432 -75 -129 -134 -237 -131
-241 4 -7 134 -32 139 -27 3 3 68 115 394 683 95 165 182 315 193 333 l20 32
-347 0 -346 0 7 -22z m597 -24 c8 -8 -49 -118 -131 -254 -12 -19 -31 -53 -43
-74 -11 -22 -49 -87 -84 -145 -57 -97 -88 -152 -141 -251 -11 -19 -22 -37 -25
-40 -3 -3 -29 -47 -58 -97 -48 -83 -56 -93 -82 -93 -16 0 -29 5 -29 12 0 11
147 272 294 523 42 71 76 135 76 141 0 7 4 14 9 16 12 4 81 133 81 150 0 8 -9
23 -21 34 -19 17 -42 20 -202 24 -168 5 -182 6 -185 24 -2 10 2 22 10 27 15
10 521 12 531 3z"/>
<path d="M1119 2408 c0 -7 -4 -48 -7 -91 -4 -42 -5 -76 -2 -74 9 6 85 39 106
47 15 6 23 20 27 52 3 24 9 52 13 61 5 15 -2 17 -65 17 -50 0 -71 -4 -72 -12z
m79 -60 c-5 -34 -38 -37 -38 -4 0 20 5 26 21 26 15 0 20 -5 17 -22z"/>
<path d="M1375 2300 c-72 -10 -135 -31 -233 -76 -263 -120 -515 -420 -681
-807 -18 -42 -18 -46 -3 -52 9 -3 105 -9 212 -12 185 -5 394 7 425 24 19 12
-54 136 -75 127 -29 -12 -337 -17 -344 -6 -12 19 69 164 163 292 250 342 556
469 879 366 21 -7 22 -5 22 57 l0 65 -52 12 c-71 15 -239 21 -313 10z m234
-40 c69 -9 101 -25 83 -42 -4 -3 -45 1 -92 9 -70 12 -100 13 -168 3 -84 -11
-224 -55 -230 -71 -2 -5 -9 -9 -16 -9 -21 0 -159 -97 -216 -152 -109 -104
-216 -244 -289 -379 -49 -91 -51 -119 -13 -149 26 -21 34 -22 184 -18 155 4
188 0 188 -26 0 -22 -35 -27 -216 -33 -186 -6 -303 2 -310 21 -7 20 91 219
147 298 10 14 19 29 19 33 0 3 33 47 73 98 80 99 214 232 265 263 18 10 32 22
32 26 0 4 4 8 10 8 5 0 31 13 58 29 56 35 183 78 267 90 83 12 137 12 224 1z"/>
<path d="M1920 2163 c0 -21 -3 -54 -6 -73 -5 -33 -2 -38 44 -78 l51 -42 30 57
c17 31 31 60 31 64 0 3 -34 30 -75 58 l-75 52 0 -38z m84 -75 c11 -16 13 -25
4 -35 -15 -19 -25 -16 -44 12 -28 42 11 65 40 23z"/>
<path d="M1180 2073 c-25 -14 -47 -27 -49 -29 -1 -1 5 -27 14 -56 107 -329
361 -530 775 -614 138 -28 587 -31 630 -4 11 7 -2 40 -57 152 -39 79 -90 172
-113 208 -55 84 -150 210 -158 210 -4 0 -22 -28 -40 -62 l-33 -61 49 -71 c69
-100 135 -224 128 -241 -13 -34 -362 -11 -521 34 -251 71 -411 191 -503 376
-32 63 -64 170 -54 179 16 16 -29 2 -68 -21z m45 -75 c18 -84 79 -182 170
-274 81 -81 102 -97 205 -147 172 -85 369 -127 591 -127 109 0 118 1 143 25
14 13 26 35 26 49 0 25 -60 147 -87 178 -14 16 -42 61 -65 105 -9 19 -8 27 7
43 18 20 18 20 33 -2 9 -13 19 -25 22 -28 41 -35 232 -382 223 -406 -13 -33
-402 -31 -583 4 -211 41 -421 143 -538 262 -62 63 -144 196 -171 277 -25 76
-25 73 -2 73 14 0 21 -10 26 -32z"/>
<path d="M944 1875 c-27 -31 -48 -61 -46 -66 1 -5 49 -89 105 -187 57 -97 193
-333 303 -524 195 -340 199 -346 213 -320 13 26 264 465 311 544 l22 37 -29 6
c-15 4 -47 13 -70 20 l-43 14 -39 -67 c-21 -37 -68 -118 -103 -180 l-65 -112
-91 157 c-49 87 -147 257 -217 378 -70 121 -144 251 -165 288 l-37 69 -49 -57z
m111 -137 c32 -57 87 -152 123 -213 36 -60 84 -144 107 -185 89 -163 158 -276
183 -302 25 -27 26 -28 55 -10 20 12 55 62 112 162 63 110 89 146 105 148 48
8 45 -15 -22 -130 -36 -62 -75 -130 -87 -150 -107 -191 -122 -211 -137 -196
-7 7 -65 103 -128 213 -63 110 -119 205 -123 210 -5 6 -19 31 -33 58 -14 26
-28 47 -32 47 -5 0 -8 5 -8 12 0 6 -17 41 -39 77 -21 36 -63 109 -93 161 -30
52 -65 112 -77 132 l-22 37 21 21 c11 11 25 18 29 15 5 -2 35 -51 66 -107z"/>
<path d="M1295 1572 c-27 -9 -51 -17 -53 -18 -7 -4 64 -114 74 -114 16 0 154
62 153 69 -1 11 -98 81 -111 80 -7 0 -35 -8 -63 -17z m85 -48 c0 -8 -12 -20
-26 -26 -21 -10 -27 -9 -35 3 -13 22 -11 29 14 38 27 10 47 4 47 -15z"/>
</g>
</svg>
